<svg xmlns="http://www.w3.org/2000/svg" viewBox="0 0 500 300">
  <!-- Truck Body with Gradient -->
  <rect x="50" y="150" width="300" height="80" rx="5" fill="url(#truckGradient)" stroke="#3b82f6" stroke-width="2"/>
  
  <!-- Truck Cabin -->
  <polygon points="350,150 450,150 450,230 400,230 350,180" fill="url(#truckGradient)" stroke="#3b82f6" stroke-width="2"/>
  
  <!-- Windows with Glass Effect -->
  <polygon points="360,160 440,160 440,190 390,190 360,170" fill="#0ea5e9" fill-opacity="0.2" stroke="#3b82f6" stroke-width="1"/>
  
  <!-- Modern Wheels -->
  <circle cx="150" cy="230" r="30" fill="#111827" stroke="#3b82f6" stroke-width="2"/>
  <circle cx="150" cy="230" r="15" fill="#3b82f6" fill-opacity="0.3" stroke="#3b82f6" stroke-width="1"/>
  <circle cx="300" cy="230" r="30" fill="#111827" stroke="#3b82f6" stroke-width="2"/>
  <circle cx="300" cy="230" r="15" fill="#3b82f6" fill-opacity="0.3" stroke="#3b82f6" stroke-width="1"/>
  
  <!-- LED Headlights -->
  <circle cx="450" cy="180" r="8" fill="#fef08a" filter="url(#lightGlow)"/>
  <circle cx="450" cy="200" r="8" fill="#fef08a" filter="url(#lightGlow)"/>
  
  <!-- Cargo Area with Details -->
  <rect x="100" y="160" width="200" height="20" rx="2" fill="#3b82f6" fill-opacity="0.1" stroke="#3b82f6" stroke-width="1" stroke-opacity="0.3"/>
  <line x1="200" y1="160" x2="200" y2="180" stroke="#3b82f6" stroke-width="1" stroke-opacity="0.3"/>
  
  <!-- Modern Effects -->
  <defs>
    <linearGradient id="truckGradient" x1="0%" y1="0%" x2="100%" y2="0%">
      <stop offset="0%" stop-color="#1e293b"/>
      <stop offset="100%" stop-color="#0f172a"/>
    </linearGradient>
    
    <filter id="lightGlow" x="-50%" y="-50%" width="200%" height="200%">
      <feGaussianBlur stdDeviation="3" result="blur"/>
      <feComposite in="SourceGraphic" in2="blur" operator="over"/>
    </filter>
  </defs>
</svg>